<?xml version="1.0" encoding="UTF-8" standalone="no"?>
<svg
   version="1.1"
   width="2.0000in"
   height="1.4633in"
   viewBox="0 0 144.0000 105.3581"
   id="svg90"
   sodipodi:docname="Kabupaten Kuningan.cdr"
   xmlns:inkscape="http://www.inkscape.org/namespaces/inkscape"
   xmlns:sodipodi="http://sodipodi.sourceforge.net/DTD/sodipodi-0.dtd"
   xmlns="http://www.w3.org/2000/svg"
   xmlns:svg="http://www.w3.org/2000/svg">
  <defs
     id="defs90" />
  <sodipodi:namedview
     id="namedview90"
     pagecolor="#ffffff"
     bordercolor="#000000"
     borderopacity="0.25"
     inkscape:showpageshadow="2"
     inkscape:pageopacity="0.0"
     inkscape:pagecheckerboard="0"
     inkscape:deskcolor="#d1d1d1"
     inkscape:document-units="in" />
  <g
     id="Layer1000">
    <path
       d="  M0.0001,2.2792 L143.9999,2.2792 L143.9999,83.8353 L0.0001,83.8353 L0.0001,2.2792 Z"
       style="fill: none; "
       id="path1" />
    <g
       id="Layer1001">
      <path
         d="  M71.9999,96.5122 C72.8416,95.6440 73.7584,94.8578 74.7377,94.1438 C77.1180,92.4083 79.8034,91.1371 82.4956,89.9678 C85.4688,88.6765 88.4628,87.4844 91.3717,86.0436 C99.6904,81.9241 105.6465,75.3187 108.2725,66.3461 C109.3169,62.7787 109.8500,59.7134 109.8500,55.9878 L109.8500,10.6868 C109.0044,10.6893 108.1588,10.6922 107.3133,10.6945 C104.3030,10.7026 103.5221,9.9266 103.5173,6.9009 L103.5132,4.9553 L97.6227,4.9553 L97.6523,0.0000 L46.3697,0.0000 L46.3739,4.9553 L40.4867,4.9553 L40.4826,6.9008 C40.4778,9.9266 39.6968,10.7026 36.6866,10.6945 C35.8411,10.6922 34.9955,10.6893 34.1499,10.6868 L34.1499,55.9878 C34.1499,59.7134 34.6830,62.7787 35.7274,66.3461 C38.3534,75.3187 44.3095,81.9241 52.6282,86.0436 C55.5371,87.4844 58.5311,88.6765 61.5043,89.9678 C64.1966,91.1371 66.8820,92.4084 69.2624,94.1440 C70.2415,94.8579 71.1582,95.6440 71.9999,96.5122 Z"
         style="fill-rule: evenodd; fill: #000200; "
         id="path2" />
      <path
         d="  M71.9999,93.9153 C77.2447,89.3797 84.3866,87.3906 90.5316,84.3472 C98.3757,80.4626 103.9785,74.2779 106.4557,65.8143 C107.4493,62.4200 107.9569,59.5323 107.9569,55.9878 L107.9569,12.5858 C107.7441,12.5864 107.5312,12.5869 107.3184,12.5875 C103.2370,12.5984 101.6306,10.9956 101.6242,6.9045 L101.6241,6.8484 L95.7183,6.8484 L95.7478,1.8931 L48.2644,1.8931 L48.2686,6.8484 L42.3758,6.8484 L42.3757,6.9039 C42.3693,10.9955 40.7629,12.5984 36.6815,12.5875 C36.4687,12.5869 36.2558,12.5864 36.0430,12.5858 L36.0430,55.9878 C36.0430,59.5323 36.5506,62.4200 37.5442,65.8144 C40.0214,74.2779 45.6242,80.4626 53.4684,84.3473 C59.6131,87.3905 66.7552,89.3797 71.9999,93.9153 Z"
         style="fill-rule: evenodd; fill: #ffffff; "
         id="path3" />
      <path
         d="  M71.9999,93.0890 C77.1150,88.7225 83.7365,86.8174 89.6015,83.8166 C97.0157,80.0237 102.3043,73.9999 104.6445,65.7400 C105.5651,62.4913 106.0677,59.5215 106.0677,56.1272 L106.0677,13.5185 C106.0659,13.5185 106.0641,13.5185 106.0623,13.5185 C101.9683,13.5297 100.1323,11.8124 99.9721,7.8009 L94.2614,7.8009 L94.2899,2.8642 L49.7188,2.8642 L49.7228,7.8009 L44.0278,7.8009 C43.8674,11.8122 42.0316,13.5297 37.9376,13.5185 C37.9358,13.5185 37.9340,13.5185 37.9322,13.5185 L37.9322,56.1272 C37.9322,59.5215 38.4348,62.4914 39.3554,65.7402 C41.6956,74.0001 46.9842,80.0237 54.3984,83.8167 C60.2633,86.8173 66.8849,88.7224 71.9999,93.0890 Z"
         style="fill-rule: evenodd; fill: #000200; "
         id="path4" />
      <path
         d="  M71.9999,91.4838 C77.1228,87.4442 83.3452,85.6146 89.0613,82.6899 C96.1699,79.0533 101.2322,73.3082 103.4764,65.3869 C104.3510,62.3002 104.8506,59.3513 104.8506,56.1272 L104.8506,14.7255 C101.3927,14.4137 99.3500,12.6434 98.8597,9.0582 L93.0370,9.0582 L93.0655,4.1215 L50.9369,4.1215 L50.9409,9.0582 L45.1402,9.0582 C44.6497,12.6426 42.6073,14.4128 39.1493,14.7253 L39.1493,56.1272 C39.1493,59.3513 39.6489,62.3003 40.5235,65.3870 C42.7677,73.3083 47.8300,79.0533 54.9386,82.6901 C60.6547,85.6146 66.8771,87.4441 71.9999,91.4838 Z"
         style="fill-rule: evenodd; fill: #85b720; "
         id="path5" />
      <path
         d="  M92.6610,49.7875 C92.6146,50.4907 92.5489,51.1863 92.4651,51.8736 C89.7391,53.1172 86.3587,52.9410 83.5320,51.8859 C78.2349,55.4791 73.1558,50.0461 67.7929,53.7078 C59.2193,49.7379 59.6495,55.7613 51.6207,52.4073 C51.4912,51.4602 51.3962,50.4971 51.3386,49.5193 C58.8067,53.4438 59.4488,47.5102 67.4386,51.5317 C73.6465,47.2637 77.8536,52.9849 83.3295,49.8110 C87.7913,51.1668 89.9104,50.6220 92.6610,49.7875 Z Z M92.2694,53.2599 C92.1444,54.0382 91.9963,54.8049 91.8249,55.5579 C89.5278,56.6994 85.9768,56.6073 83.3982,55.6309 C78.1765,59.2241 73.1696,53.7911 67.8830,57.4528 C59.5112,53.5204 60.3812,59.6102 52.2611,55.8491 C52.0648,55.0200 51.8961,54.1740 51.7564,53.3134 C59.0297,57.1377 59.6913,51.2723 67.5338,55.2767 C73.6533,51.0087 77.8006,56.7299 83.1987,53.5560 C87.5105,54.8852 89.8853,54.3005 92.2694,53.2599 Z Z M91.4666,56.9900 C91.2382,57.8287 90.9813,58.6486 90.6970,59.4474 C88.3440,60.3881 85.4875,60.3305 83.1467,59.4170 C78.3398,62.8545 73.4847,57.4482 68.0950,61.2388 C60.2043,57.4182 60.6768,62.7692 53.5191,59.9898 C53.1781,59.0816 52.8728,58.1449 52.6047,57.1833 C59.5171,60.8403 60.2035,55.0875 67.7563,59.0627 C73.6929,54.7947 77.7163,60.5159 82.9531,57.3420 C86.9141,58.6007 89.3146,58.0650 91.4666,56.9900 Z Z M90.0112,61.2106 C89.7001,61.9460 89.3647,62.6599 89.0071,63.3514 C86.8090,64.2068 84.4010,64.1558 82.5098,63.1116 C77.7242,66.7048 73.2739,61.1703 68.4288,64.8320 C61.1189,61.0856 61.9328,66.7035 55.2111,63.7337 C54.7763,62.9210 54.3720,62.0766 54.0023,61.2016 C60.3550,64.6192 61.0432,58.7194 68.1087,62.6559 C73.7173,58.3879 77.5182,64.1091 82.4654,60.9352 C84.7038,62.3409 87.5442,61.9597 90.0112,61.2106 Z Z M88.1348,64.9206 C87.6996,65.6494 87.2382,66.3484 86.7525,67.0144 C84.8604,67.4572 82.6937,67.3526 80.7111,66.5628 C76.4925,69.5153 73.4313,64.9210 69.1603,67.9300 C62.8976,64.9378 62.4765,68.8123 57.5120,67.3468 C56.9774,66.6381 56.4701,65.8919 55.9943,65.1089 C61.6761,67.9812 62.5289,62.9599 68.7820,66.2074 C73.7259,62.7003 76.3442,67.4398 80.7051,64.8318 C83.9714,66.0676 86.2506,65.5987 88.1348,64.9206 Z"
         style="fill-rule: evenodd; fill: #006cb5; "
         id="path6" />
      <path
         d="  M84.4100,71.7740 C81.8121,76.8245 77.2249,80.1802 71.9998,80.1802 C66.7746,80.1802 62.1875,76.8245 59.5895,71.7740 L84.4100,71.7740 Z"
         style="fill-rule: evenodd; fill: #000200; "
         id="path7" />
      <path
         d="  M83.5769,71.4605 L60.4226,71.7740 C62.9952,76.4239 67.1824,79.4229 71.9615,79.4229 C76.7406,79.4229 81.7413,75.5924 83.5769,71.4605 Z"
         style="fill-rule: evenodd; fill: #ffec00; "
         id="path8" />
      <path
         d="  M67.6822,82.4902 L68.1990,82.4902 L68.5941,81.1591 L68.6505,81.1591 L68.6505,79.1324 L75.3491,79.1324 L75.3491,81.1591 L75.2927,81.1591 L75.7621,82.4902 L76.2987,82.4902 L77.6338,84.7905 L66.3659,84.7905 L67.6822,82.4902 Z"
         style="fill-rule: evenodd; fill: #000200; "
         id="path9" />
      <path
         d="  M68.0520,83.1212 L67.4578,84.1595 L76.5417,84.1595 L75.9391,83.1212 L68.0520,83.1212 Z Z M69.2816,79.7633 L74.7180,79.7633 L74.7180,80.5280 L69.2816,80.5280 L69.2816,79.7633 Z Z M68.8609,82.5548 L75.1386,82.5548 L74.7533,81.1591 L69.2326,81.1591 L68.8609,82.5548 Z"
         style="fill-rule: evenodd; fill: #ffec00; "
         id="path10" />
      <path
         d="  M57.1626,68.9060 C67.0541,68.9060 76.9456,68.9060 86.8370,68.9060 L85.3457,71.7740 C76.4485,71.7740 67.5512,71.7740 58.6540,71.7740 L57.1626,68.9060 Z Z M58.4099,69.6633 L59.1137,71.0168 C67.7045,71.0168 76.2951,71.0168 84.8859,71.0168 L85.5898,69.6633 C76.5298,69.6633 67.4699,69.6633 58.4099,69.6633 Z"
         style="fill-rule: evenodd; fill: #000200; "
         id="path11" />
      <path
         d="  M51.2906,48.7142 C64.9402,48.7704 79.0595,48.6759 92.7092,48.7322 C89.9415,44.5093 85.0716,39.3843 78.2903,37.3103 C77.5515,36.4500 76.7560,35.7454 75.8534,35.3362 C74.4804,34.7143 72.5592,34.8566 70.9476,34.8696 C70.0864,34.8766 70.1314,34.9382 69.5708,35.6089 C59.8591,47.2297 58.2940,39.3946 51.2906,48.7142 Z"
         style="fill-rule: evenodd; fill: #000200; "
         id="path12" />
      <path
         d="  M91.3780,18.9825 C92.0477,18.5496 92.8476,18.5279 93.5118,18.8501 C94.5144,18.4323 95.6874,18.8193 96.2710,19.8199 C96.9250,20.9409 96.5917,22.4083 95.5268,23.0967 C95.1457,23.3430 94.7227,23.4562 94.3065,23.4488 C94.1561,24.0007 93.8171,24.4974 93.3158,24.8215 C92.2508,25.5100 90.8570,25.1591 90.2030,24.0380 C89.7022,23.1795 89.7804,22.1179 90.3227,21.3585 C90.1958,20.4444 90.5830,19.4965 91.3780,18.9825 Z"
         style="fill-rule: evenodd; fill: #000200; "
         id="path13" />
      <path
         d="  M90.6771,21.6389 C90.2285,22.2673 90.1890,23.1221 90.5808,23.7938 C91.1067,24.6953 92.2274,24.9774 93.0838,24.4238 C93.4726,24.1724 93.7545,23.7818 93.8802,23.3201 L93.9740,22.9761 L94.3139,22.9822 C94.6611,22.9883 94.9989,22.8902 95.2948,22.6990 C96.1512,22.1454 96.4191,20.9656 95.8932,20.0641 C95.4317,19.2729 94.4943,18.9426 93.6749,19.2841 L93.4985,19.3577 L93.3262,19.2741 C92.7724,19.0052 92.1311,19.0434 91.6100,19.3803 C90.9887,19.7819 90.6563,20.5337 90.7613,21.2910 L90.7881,21.4835 L90.6771,21.6389 Z"
         style="fill-rule: evenodd; fill: #ffffff; "
         id="path14" />
      <path
         d="  M89.9831,23.9756 C91.3328,24.0807 92.8734,23.5030 92.9278,21.3386 C94.2815,22.4071 95.3305,21.9091 96.5198,19.9318 C96.8206,21.9650 96.3572,24.2798 95.4945,26.0952 C93.2096,26.2008 90.9545,25.5675 89.9831,23.9756 Z"
         style="fill-rule: evenodd; fill: #000200; "
         id="path15" />
      <path
         d="  M90.9274,24.4042 C92.0332,25.3928 93.8253,25.6626 95.2123,25.6374 C95.8008,24.3086 96.1681,22.7317 96.1683,21.2261 C95.3794,22.1774 94.4434,22.6922 93.2858,22.1152 C93.0140,23.4244 92.1250,24.2057 90.9274,24.4042 Z"
         style="fill-rule: evenodd; fill: #85b720; "
         id="path16" />
      <path
         d="  M94.7913,24.9423 C95.4611,24.5094 96.2610,24.4877 96.9251,24.8099 C97.9277,24.3921 99.1007,24.7791 99.6844,25.7796 C100.3383,26.9007 100.0050,28.3681 98.9401,29.0565 C98.5591,29.3028 98.1360,29.4160 97.7198,29.4086 C97.5695,29.9605 97.2304,30.4572 96.7291,30.7813 C95.6642,31.4697 94.2703,31.1189 93.6163,29.9978 C93.1156,29.1393 93.1937,28.0777 93.7360,27.3183 C93.6091,26.4042 93.9963,25.4563 94.7913,24.9423 Z"
         style="fill-rule: evenodd; fill: #000200; "
         id="path17" />
      <path
         d="  M94.0904,27.5987 C93.6418,28.2271 93.6023,29.0819 93.9941,29.7536 C94.5200,30.6551 95.6407,30.9372 96.4971,30.3836 C96.8860,30.1322 97.1678,29.7416 97.2936,29.2799 L97.3873,28.9359 L97.7272,28.9419 C98.0744,28.9481 98.4123,28.8500 98.7081,28.6588 C99.5645,28.1052 99.8324,26.9254 99.3066,26.0239 C98.8450,25.2327 97.9076,24.9024 97.0883,25.2439 L96.9119,25.3174 L96.7395,25.2339 C96.1857,24.9650 95.5444,25.0032 95.0233,25.3401 C94.4020,25.7417 94.0696,26.4935 94.1747,27.2508 L94.2015,27.4433 L94.0904,27.5987 Z"
         style="fill-rule: evenodd; fill: #ffffff; "
         id="path18" />
      <path
         d="  M93.3964,29.9354 C94.7462,30.0405 96.2867,29.4628 96.3411,27.2984 C97.6948,28.3668 98.7438,27.8689 99.9332,25.8916 C100.2339,27.9248 99.7706,30.2396 98.9079,32.0550 C96.6229,32.1606 94.3678,31.5273 93.3964,29.9354 Z"
         style="fill-rule: evenodd; fill: #000200; "
         id="path19" />
      <path
         d="  M94.3407,30.3640 C95.4465,31.3526 97.2387,31.6223 98.6256,31.5972 C99.2141,30.2684 99.5815,28.6915 99.5817,27.1858 C98.7927,28.1372 97.8567,28.6520 96.6992,28.0750 C96.4274,29.3842 95.5384,30.1655 94.3407,30.3640 Z"
         style="fill-rule: evenodd; fill: #85b720; "
         id="path20" />
      <path
         d="  M97.3733,30.9077 C98.2309,30.6606 99.1062,30.9036 99.7306,31.4748 C100.9451,31.3551 102.1028,32.1662 102.4358,33.4474 C102.8090,34.8829 102.0059,36.3655 100.6423,36.7584 C100.1544,36.8990 99.6609,36.8809 99.2111,36.7342 C98.8819,37.2835 98.3644,37.7100 97.7224,37.8950 C96.3588,38.2879 94.9504,37.4424 94.5772,36.0069 C94.2915,34.9076 94.6955,33.7807 95.5128,33.1366 C95.6499,32.1015 96.3554,31.2010 97.3733,30.9077 Z"
         style="fill-rule: evenodd; fill: #000200; "
         id="path21" />
      <path
         d="  M95.8134,33.5592 C95.1373,34.0922 94.8374,35.0075 95.0610,35.8675 C95.3611,37.0219 96.4935,37.7016 97.5900,37.3857 C98.0879,37.2423 98.5115,36.9119 98.7869,36.4524 L98.9922,36.1100 L99.3595,36.2298 C99.7347,36.3522 100.1311,36.3583 100.5099,36.2491 C101.6065,35.9332 102.2522,34.7412 101.9521,33.5868 C101.6887,32.5737 100.7699,31.9027 99.7773,32.0006 L99.5636,32.0216 L99.4016,31.8734 C98.8810,31.3969 98.1729,31.2247 97.5057,31.4170 C96.7102,31.6462 96.1231,32.3519 96.0095,33.2094 L95.9808,33.4274 L95.8134,33.5592 Z"
         style="fill-rule: evenodd; fill: #ffffff; "
         id="path22" />
      <path
         d="  M94.3572,35.8658 C95.7915,36.4297 97.6384,36.3156 98.3482,33.9830 C99.4972,35.5944 100.7862,35.4032 102.6724,33.6519 C102.3878,35.9603 101.1886,38.3200 99.7058,40.0042 C97.1924,39.3576 94.9335,37.9184 94.3572,35.8658 Z"
         style="fill-rule: evenodd; fill: #000200; "
         id="path23" />
      <path
         d="  M95.2539,36.6459 C96.1577,38.0881 98.0230,38.9782 99.5369,39.4130 C100.5756,38.1659 101.4486,36.5756 101.9015,34.9404 C100.7587,35.7108 99.5873,35.9581 98.5036,34.9457 C97.8148,36.2771 96.6143,36.8294 95.2539,36.6459 Z"
         style="fill-rule: evenodd; fill: #85b720; "
         id="path24" />
      <path
         d="  M99.5428,37.4278 C100.4377,37.4278 101.2261,37.9084 101.6882,38.6377 C102.8975,38.8612 103.8166,39.9724 103.8166,41.3094 C103.8166,42.8074 102.6627,44.0221 101.2398,44.0221 C100.7307,44.0221 100.2561,43.8665 99.8564,43.5983 C99.3982,44.0395 98.7881,44.3088 98.1182,44.3088 C96.6953,44.3088 95.5414,43.0941 95.5414,41.5961 C95.5414,40.4490 96.2181,39.4679 97.1741,39.0712 C97.5684,38.1047 98.4806,37.4278 99.5428,37.4278 Z"
         style="fill-rule: evenodd; fill: #000200; "
         id="path25" />
      <path
         d="  M97.3592,39.5656 C96.5683,39.8939 96.0462,40.6986 96.0462,41.5961 C96.0462,42.8007 96.9739,43.7774 98.1182,43.7774 C98.6378,43.7774 99.1324,43.5751 99.5157,43.2061 L99.8014,42.9310 L100.1278,43.1501 C100.4612,43.3739 100.8445,43.4906 101.2398,43.4906 C102.3841,43.4906 103.3118,42.5140 103.3118,41.3094 C103.3118,40.2522 102.5892,39.3437 101.6008,39.1612 L101.3881,39.1218 L101.2682,38.9327 C100.8830,38.3244 100.2391,37.9592 99.5428,37.9592 C98.7127,37.9592 97.9646,38.4801 97.6379,39.2809 L97.5550,39.4844 L97.3592,39.5656 Z"
         style="fill-rule: evenodd; fill: #ffffff; "
         id="path26" />
      <path
         d="  M95.3633,41.3976 C96.6135,42.3462 98.4353,42.7520 99.7131,40.6860 C100.4218,42.5718 101.7215,42.7466 103.9947,41.5740 C103.1358,43.7355 101.3760,45.6909 99.5114,46.9112 C97.2345,45.5805 95.4048,43.5515 95.3633,41.3976 Z"
         style="fill-rule: evenodd; fill: #000200; "
         id="path27" />
      <path
         d="  M96.0370,42.4057 C96.5504,44.0586 98.1367,45.4445 99.4966,46.2900 C100.8198,45.3698 102.0687,44.0702 102.9211,42.6094 C101.6171,43.0376 100.4176,42.9500 99.6209,41.6641 C98.6162,42.7639 97.3114,42.9644 96.0370,42.4057 Z"
         style="fill-rule: evenodd; fill: #85b720; "
         id="path28" />
      <path
         d="  M99.9164,45.2498 C100.8058,45.3544 101.5386,45.9243 101.9209,46.7031 C103.0991,47.0666 103.8953,48.2784 103.7543,49.6071 C103.5963,51.0958 102.3214,52.1681 100.9072,52.0017 C100.4013,51.9422 99.9461,51.7321 99.5772,51.4188 C99.0752,51.8037 98.4405,52.0001 97.7747,51.9217 C96.3606,51.7554 95.3420,50.4133 95.5000,48.9246 C95.6210,47.7845 96.3970,46.8887 97.3890,46.6062 C97.8827,45.6917 98.8607,45.1256 99.9164,45.2498 Z"
         style="fill-rule: evenodd; fill: #000200; "
         id="path29" />
      <path
         d="  M97.5208,47.1192 C96.7001,47.3529 96.0964,48.0917 96.0017,48.9836 C95.8746,50.1808 96.6936,51.2598 97.8308,51.3936 C98.3472,51.4543 98.8600,51.3112 99.2799,50.9892 L99.5929,50.7493 L99.8941,51.0052 C100.2019,51.2665 100.5705,51.4274 100.9633,51.4736 C102.1005,51.6074 103.1255,50.7452 103.2526,49.5480 C103.3641,48.4974 102.7418,47.5101 101.7788,47.2131 L101.5715,47.1492 L101.4723,46.9471 C101.1537,46.2976 100.5523,45.8594 99.8604,45.7780 C99.0353,45.6809 98.2370,46.1112 97.8278,46.8688 L97.7239,47.0614 L97.5208,47.1192 Z"
         style="fill-rule: evenodd; fill: #ffffff; "
         id="path30" />
      <path
         d="  M95.3440,48.7065 C96.4863,49.7954 98.2540,50.4116 99.7419,48.5078 C100.2473,50.4648 101.5205,50.7905 103.9034,49.8909 C102.8217,51.9386 100.8665,53.6762 98.8848,54.6710 C96.7624,53.0823 95.1580,50.8519 95.3440,48.7065 Z"
         style="fill-rule: evenodd; fill: #000200; "
         id="path31" />
      <path
         d="  M95.9071,49.7871 C96.2430,51.4898 97.6732,53.0525 98.9356,54.0518 C100.3476,53.2920 101.7259,52.1464 102.7272,50.7943 C101.3861,51.0675 100.2032,50.8402 99.5472,49.4691 C98.4326,50.4446 97.1147,50.4913 95.9071,49.7871 Z"
         style="fill-rule: evenodd; fill: #85b720; "
         id="path32" />
      <path
         d="  M99.0690,52.8259 C100.0037,52.9476 100.7739,53.6103 101.1756,54.5159 C102.4139,54.9385 103.2507,56.3477 103.1024,57.8927 C102.9364,59.6239 101.5965,60.8708 100.1103,60.6773 C99.5786,60.6081 99.1002,60.3638 98.7125,59.9995 C98.1850,60.4471 97.5179,60.6754 96.8183,60.5843 C95.3321,60.3909 94.2616,58.8302 94.4277,57.0991 C94.5548,55.7734 95.3704,54.7317 96.4128,54.4032 C96.9318,53.3398 97.9596,52.6815 99.0690,52.8259 Z"
         style="fill-rule: evenodd; fill: #000200; "
         id="path33" />
      <path
         d="  M96.5514,54.9997 C95.6889,55.2715 95.0544,56.1305 94.9549,57.1677 C94.8214,58.5598 95.6820,59.8146 96.8772,59.9702 C97.4199,60.0408 97.9589,59.8744 98.4001,59.4999 L98.7290,59.2210 L99.0456,59.5185 C99.3690,59.8224 99.7564,60.0095 100.1692,60.0632 C101.3644,60.2188 102.4416,59.2162 102.5752,57.8241 C102.6924,56.6024 102.0383,55.4543 101.0264,55.1089 L100.8085,55.0346 L100.7042,54.7996 C100.3694,54.0444 99.7373,53.5348 99.0101,53.4401 C98.1431,53.3272 97.3041,53.8276 96.8740,54.7085 L96.7648,54.9325 L96.5514,54.9997 Z"
         style="fill-rule: evenodd; fill: #ffffff; "
         id="path34" />
      <path
         d="  M94.2637,56.8455 C95.4642,58.1117 97.3220,58.8283 98.8856,56.6145 C99.4168,58.8901 100.7549,59.2689 103.2591,58.2228 C102.1223,60.6039 100.0675,62.6245 97.9848,63.7812 C95.7543,61.9339 94.0682,59.3403 94.2637,56.8455 Z"
         style="fill-rule: evenodd; fill: #000200; "
         id="path35" />
      <path
         d="  M94.8555,58.1021 C95.2085,60.0821 96.7116,61.8993 98.0383,63.0613 C99.5222,62.1777 100.9707,60.8456 102.0230,59.2733 C100.6136,59.5909 99.3704,59.3267 98.6810,57.7323 C97.5097,58.8667 96.1246,58.9210 94.8555,58.1021 Z"
         style="fill-rule: evenodd; fill: #85b720; "
         id="path36" />
      <path
         d="  M98.7269,61.7833 C99.5818,62.1993 100.1232,63.0777 100.2434,64.0691 C101.3002,64.8692 101.6888,66.4799 101.1000,67.9037 C100.4402,69.4990 98.8029,70.2563 97.4436,69.5949 C96.9573,69.3582 96.5725,68.9719 96.3088,68.5005 C95.6767,68.7573 94.9753,68.7606 94.3354,68.4492 C92.9761,67.7877 92.4088,65.9577 93.0685,64.3624 C93.5737,63.1407 94.6523,62.4105 95.7402,62.4324 C96.5426,61.5863 97.7121,61.2895 98.7269,61.7833 Z"
         style="fill-rule: evenodd; fill: #000200; "
         id="path37" />
      <path
         d="  M95.6994,63.0450 C94.7992,63.0269 93.9460,63.6413 93.5508,64.5970 C93.0202,65.8799 93.4763,67.3513 94.5694,67.8832 C95.0658,68.1247 95.6273,68.1393 96.1560,67.9244 L96.5501,67.7643 L96.7654,68.1493 C96.9854,68.5426 97.3001,68.8452 97.6777,69.0289 C98.7708,69.5608 100.0872,68.9520 100.6177,67.6691 C101.0833,66.5432 100.7931,65.2398 99.9294,64.5860 L99.7435,64.4452 L99.7122,64.1879 C99.6122,63.3611 99.1579,62.6729 98.4928,62.3492 C97.6998,61.9633 96.7558,62.1704 96.0910,62.8713 L95.9221,63.0495 L95.6994,63.0450 Z"
         style="fill-rule: evenodd; fill: #ffffff; "
         id="path38" />
      <path
         d="  M92.9858,64.0682 C93.7623,65.6596 95.3239,66.9385 97.4545,65.3323 C97.3010,67.6701 98.4655,68.4605 101.1535,68.2683 C99.3810,70.1710 96.8387,71.4354 94.5201,71.8683 C92.9311,69.3927 92.0769,66.3814 92.9858,64.0682 Z"
         style="fill-rule: evenodd; fill: #000200; "
         id="path39" />
      <path
         d="  M93.1854,65.4550 C92.9478,67.4539 93.8528,69.6672 94.7796,71.1998 C96.4488,70.8349 98.2143,70.0314 99.6719,68.8719 C98.2377,68.7218 97.1303,68.0710 96.9357,66.3312 C95.4915,67.0354 94.1568,66.6424 93.1854,65.4550 Z"
         style="fill-rule: evenodd; fill: #85b720; "
         id="path40" />
      <path
         d="  M95.3838,69.6924 C96.0559,70.3869 96.2850,71.4059 96.0814,72.3821 C96.8208,73.5099 96.6720,75.1643 95.6624,76.2966 C94.5312,77.5652 92.7474,77.6984 91.6787,76.5940 C91.2964,76.1989 91.0575,75.6989 90.9599,75.1615 C90.2825,75.1795 89.6210,74.9341 89.1179,74.4142 C88.0492,73.3098 88.0999,71.3856 89.2311,70.1169 C90.0973,69.1455 91.3463,68.8399 92.3639,69.2458 C93.3898,68.7333 94.5861,68.8680 95.3838,69.6924 Z"
         style="fill-rule: evenodd; fill: #000200; "
         id="path41" />
      <path
         d="  M92.1296,69.8082 C91.2877,69.4724 90.2879,69.7487 89.6102,70.5087 C88.7006,71.5289 88.6598,73.0760 89.5192,73.9641 C89.9094,74.3674 90.4336,74.5800 91.0001,74.5649 L91.4224,74.5537 L91.5020,74.9926 C91.5835,75.4408 91.7832,75.8372 92.0800,76.1440 C92.9394,77.0321 94.3736,76.9250 95.2833,75.9048 C96.0816,75.0095 96.2249,73.6792 95.6205,72.7576 L95.4904,72.5592 L95.5432,72.3059 C95.7132,71.4919 95.5054,70.6828 94.9825,70.1425 C94.3591,69.4982 93.4039,69.3588 92.5539,69.7833 L92.3379,69.8914 L92.1296,69.8082 Z"
         style="fill-rule: evenodd; fill: #ffffff; "
         id="path42" />
      <path
         d="  M79.3357,80.4400 C79.2897,81.2622 79.2438,82.0843 79.1979,82.9064 C82.7506,82.4897 85.8983,80.0828 89.0754,77.8198 C91.2012,78.0284 93.5991,77.6798 95.5963,76.6589 C93.0035,75.8876 92.1595,74.7310 93.0512,72.5838 C90.5317,73.3417 89.4698,71.5843 89.2473,69.8107 C87.9803,71.2849 87.6199,73.5676 87.8782,75.8944 C85.0698,77.8619 82.2689,79.9198 79.3357,80.4400 Z"
         style="fill-rule: evenodd; fill: #000200; "
         id="path43" />
      <path
         d="  M88.9919,71.1873 C88.2792,72.6730 88.2542,74.5726 88.4830,76.1872 C88.2677,76.3318 88.1079,76.4209 88.0357,76.4225 C85.5709,78.1531 82.7602,80.2295 79.8165,80.8846 C79.7904,81.3524 79.7643,81.8202 79.7381,82.2880 C82.9894,81.6856 86.0191,79.3598 88.6897,77.4530 C88.7114,77.4106 88.9459,77.3358 89.2621,77.2334 C90.7948,77.3723 92.4701,77.2102 94.0081,76.7023 C92.7056,76.0530 91.8707,75.0481 92.2435,73.3406 C90.6585,73.4923 89.5272,72.6495 88.9919,71.1873 Z"
         style="fill-rule: evenodd; fill: #85b720; "
         id="path44" />
      <path
         d="  M63.8535,80.5432 C61.9709,79.9039 60.0936,79.2566 58.3522,78.4051 C57.6662,78.0696 57.0632,77.7089 56.4534,77.2507 C45.0138,68.6516 39.1401,46.7813 48.1159,24.9141 L47.6979,24.7176 C40.1524,42.8967 41.1705,64.5002 55.8355,78.1649 C56.8079,79.0713 57.6178,79.2007 58.8324,79.7164 C60.7667,80.5379 62.6075,81.7085 63.5699,82.9064 C63.6644,82.1187 63.7590,81.3309 63.8535,80.5432 Z"
         style="fill-rule: evenodd; fill: #000200; "
         id="path45" />
      <path
         d="  M56.4295,77.3597 C54.0382,76.0009 53.5529,73.4903 53.7745,70.9314 L53.8686,69.8447 L54.7637,70.4679 C56.9493,71.9896 57.5878,74.3001 57.3700,76.8645 L57.2866,77.8468 L56.4295,77.3597 Z"
         style="fill-rule: evenodd; fill: #000200; "
         id="path46" />
      <path
         d="  M54.4032,70.9858 C54.1770,73.5981 54.7479,75.6784 56.7412,76.8111 C56.9525,74.3245 56.3053,72.3100 54.4032,70.9858 Z"
         style="fill-rule: evenodd; fill: #ffec00; "
         id="path47" />
      <path
         d="  M55.5761,78.5764 C52.8779,79.4352 50.6406,78.0481 48.8606,76.0927 L48.1047,75.2624 L49.2013,75.0210 C51.8788,74.4315 54.0719,75.5631 55.8587,77.5193 L56.5431,78.2687 L55.5761,78.5764 Z"
         style="fill-rule: evenodd; fill: #000200; "
         id="path48" />
      <path
         d="  M49.3409,75.6554 C51.1581,77.6515 53.1300,78.6732 55.3790,77.9574 C53.6465,76.0604 51.6712,75.1424 49.3409,75.6554 Z"
         style="fill-rule: evenodd; fill: #ffec00; "
         id="path49" />
      <path
         d="  M50.2290,73.1434 C47.3172,73.3456 45.4147,71.4108 44.1087,69.0184 L43.5541,68.0025 L44.7113,68.0281 C47.5367,68.0906 49.4573,69.7586 50.7698,72.1536 L51.2725,73.0710 L50.2290,73.1434 Z"
         style="fill-rule: evenodd; fill: #000200; "
         id="path50" />
      <path
         d="  M44.6964,68.6975 C46.0297,71.1398 47.7555,72.6439 50.1826,72.4754 C48.9099,70.1530 47.1554,68.7519 44.6964,68.6975 Z"
         style="fill-rule: evenodd; fill: #ffec00; "
         id="path51" />
      <path
         d="  M51.0893,72.5129 C49.0246,70.5213 49.1837,67.8591 50.0696,65.3308 L50.4457,64.2572 L51.1890,65.1184 C53.0037,67.2213 53.0512,69.7211 52.1677,72.2558 L51.8293,73.2267 L51.0893,72.5129 Z"
         style="fill-rule: evenodd; fill: #000200; "
         id="path52" />
      <path
         d="  M50.6907,65.5484 C49.7864,68.1294 49.8252,70.3791 51.5462,72.0392 C52.4029,69.5814 52.2701,67.3785 50.6907,65.5484 Z"
         style="fill-rule: evenodd; fill: #ffec00; "
         id="path53" />
      <path
         d="  M46.7494,67.2711 C43.8677,66.8078 42.4534,64.4920 41.7240,61.8657 L41.4142,60.7506 L42.5354,61.0379 C45.2730,61.7394 46.7653,63.7995 47.5006,66.4297 L47.7822,67.4372 L46.7494,67.2711 Z"
         style="fill-rule: evenodd; fill: #000200; "
         id="path54" />
      <path
         d="  M42.3691,61.6865 C43.1139,64.3675 44.4536,66.2238 46.8557,66.6100 C46.1428,64.0595 44.7517,62.2970 42.3691,61.6865 Z"
         style="fill-rule: evenodd; fill: #ffec00; "
         id="path55" />
      <path
         d="  M47.5429,66.8348 C45.9468,64.4510 46.6662,61.8829 48.0675,59.5996 L48.6624,58.6300 L49.2064,59.6291 C50.5346,62.0686 50.0515,64.5218 48.6513,66.8119 L48.1149,67.6891 L47.5429,66.8348 Z"
         style="fill-rule: evenodd; fill: #000200; "
         id="path56" />
      <path
         d="  M48.6284,59.9438 C47.1980,62.2747 46.7594,64.4816 48.0897,66.4686 C49.4476,64.2479 49.7844,62.0669 48.6284,59.9438 Z"
         style="fill-rule: evenodd; fill: #ffec00; "
         id="path57" />
      <path
         d="  M44.1941,60.6163 C41.5112,59.4670 40.7016,56.8771 40.6318,54.1523 L40.6020,52.9953 L41.6200,53.5463 C44.1053,54.8916 45.0526,57.2524 45.1271,59.9825 L45.1557,61.0282 L44.1941,60.6163 Z"
         style="fill-rule: evenodd; fill: #000200; "
         id="path58" />
      <path
         d="  M41.3011,54.1351 C41.3725,56.9167 42.2214,59.0428 44.4577,60.0008 C44.3856,57.3535 43.4641,55.3059 41.3011,54.1351 Z"
         style="fill-rule: evenodd; fill: #ffec00; "
         id="path59" />
      <path
         d="  M45.1722,60.4590 C44.0277,57.8284 45.1945,55.4301 46.9812,53.4340 L47.7398,52.5863 L48.0966,53.6665 C48.9675,56.3042 48.0538,58.6315 46.2668,60.6345 L45.5823,61.4018 L45.1722,60.4590 Z"
         style="fill-rule: evenodd; fill: #000200; "
         id="path60" />
      <path
         d="  M47.4716,53.8728 C45.6477,55.9107 44.8217,58.0037 45.7757,60.1964 C47.5085,58.2541 48.2296,56.1684 47.4716,53.8728 Z"
         style="fill-rule: evenodd; fill: #ffec00; "
         id="path61" />
      <path
         d="  M43.0008,52.4940 C40.4078,51.1542 39.7872,48.5126 39.9142,45.7899 L39.9680,44.6337 L40.9435,45.2567 C43.3252,46.7779 44.0998,49.2009 43.9771,51.9292 L43.9301,52.9742 L43.0008,52.4940 Z"
         style="fill-rule: evenodd; fill: #000200; "
         id="path62" />
      <path
         d="  M40.5830,45.8210 C40.4535,48.6005 41.1468,50.7823 43.3082,51.8991 C43.4272,49.2536 42.6559,47.1449 40.5830,45.8210 Z"
         style="fill-rule: evenodd; fill: #ffec00; "
         id="path63" />
      <path
         d="  M43.8125,52.2522 C43.0496,49.4867 44.5422,47.2765 46.5921,45.5516 L47.4624,44.8191 L47.6636,45.9389 C48.1547,48.6728 46.9226,50.8484 44.8715,52.5800 L44.0859,53.2433 L43.8125,52.2522 Z"
         style="fill-rule: evenodd; fill: #000200; "
         id="path64" />
      <path
         d="  M47.0158,46.0552 C44.9233,47.8161 43.8111,49.7720 44.4469,52.0772 C46.4358,50.3980 47.4432,48.4345 47.0158,46.0552 Z"
         style="fill-rule: evenodd; fill: #ffec00; "
         id="path65" />
      <path
         d="  M42.7965,44.7753 C40.5002,43.2875 40.1635,40.7660 40.5316,38.2375 L40.6879,37.1638 L41.5409,37.8345 C43.6234,39.4721 44.1239,41.8037 43.7592,44.3379 L43.6195,45.3086 L42.7965,44.7753 Z"
         style="fill-rule: evenodd; fill: #000200; "
         id="path66" />
      <path
         d="  M41.1528,38.3279 C40.7771,40.9092 41.2238,43.0083 43.1378,44.2485 C43.4915,41.7912 42.9653,39.7531 41.1528,38.3279 Z"
         style="fill-rule: evenodd; fill: #ffec00; "
         id="path67" />
      <path
         d="  M44.5162,45.1458 C46.9816,43.9591 47.6333,41.5002 47.5866,38.9454 L47.5669,37.8605 L46.6362,38.4185 C44.3639,39.7807 43.5738,42.0307 43.6163,44.5906 L43.6326,45.5712 L44.5162,45.1458 Z"
         style="fill-rule: evenodd; fill: #000200; "
         id="path68" />
      <path
         d="  M46.9590,38.9568 C47.0066,41.5649 46.2990,43.5910 44.2440,44.5802 C44.2027,42.0979 44.9814,40.1424 46.9590,38.9568 Z"
         style="fill-rule: evenodd; fill: #ffec00; "
         id="path69" />
      <path
         d="  M43.3884,36.9543 C41.3290,35.1529 41.3569,32.6092 42.0835,30.1595 L42.3919,29.1192 L43.1400,29.9052 C44.9665,31.8243 45.1278,34.2035 44.4038,36.6593 L44.1266,37.6000 L43.3884,36.9543 Z"
         style="fill-rule: evenodd; fill: #000200; "
         id="path70" />
      <path
         d="  M42.6853,30.3379 C41.9437,32.8388 42.0850,34.9802 43.8017,36.4818 C44.5037,34.1005 44.2749,32.0081 42.6853,30.3379 Z"
         style="fill-rule: evenodd; fill: #ffec00; "
         id="path71" />
      <path
         d="  M45.1181,37.5971 C47.7245,36.7647 48.7117,34.4202 49.0207,31.8838 L49.1520,30.8067 L48.1528,31.2298 C45.7132,32.2629 44.6179,34.3812 44.3041,36.9222 L44.1839,37.8954 L45.1181,37.5971 Z"
         style="fill-rule: evenodd; fill: #000200; "
         id="path72" />
      <path
         d="  M48.3976,31.8078 C48.0821,34.3972 47.0997,36.3052 44.9271,36.9991 C45.2313,34.5352 46.2744,32.7069 48.3976,31.8078 Z"
         style="fill-rule: evenodd; fill: #ffec00; "
         id="path73" />
      <path
         d="  M44.7508,30.6856 C43.1458,28.3682 43.5990,25.6633 44.6835,23.1935 L45.1439,22.1447 L45.7048,23.1267 C47.0743,25.5244 46.8240,28.0907 45.7409,30.5675 L45.3261,31.5162 L44.7508,30.6856 Z"
         style="fill-rule: evenodd; fill: #000200; "
         id="path74" />
      <path
         d="  M45.2110,23.4999 C44.1039,26.0213 43.8752,28.3303 45.2130,30.2620 C46.2633,27.8604 46.4028,25.5866 45.2110,23.4999 Z"
         style="fill-rule: evenodd; fill: #ffec00; "
         id="path75" />
      <path
         d="  M46.3276,31.2493 C48.8483,30.6128 50.1741,28.4587 50.9187,26.0851 L51.2350,25.0771 L50.2497,25.4192 C47.8439,26.2543 46.4612,28.1891 45.7114,30.5667 L45.4242,31.4775 L46.3276,31.2493 Z"
         style="fill-rule: evenodd; fill: #000200; "
         id="path76" />
      <path
         d="  M50.3664,25.9780 C49.6062,28.4012 48.3646,30.1441 46.2634,30.6747 C46.9905,28.3691 48.2727,26.7048 50.3664,25.9780 Z"
         style="fill-rule: evenodd; fill: #ffec00; "
         id="path77" />
      <path
         d="  M46.9008,26.0635 C46.3615,23.0983 48.1304,20.9253 50.4368,19.3123 L51.4162,18.6274 L51.5218,19.8179 C51.7797,22.7246 50.2866,24.8858 47.9783,26.5057 L47.0941,27.1262 L46.9008,26.0635 Z"
         style="fill-rule: evenodd; fill: #000200; "
         id="path78" />
      <path
         d="  M50.8331,19.8789 C48.4786,21.5255 47.1316,23.4681 47.5811,25.9397 C49.8195,24.3690 51.0575,22.4087 50.8331,19.8789 Z"
         style="fill-rule: evenodd; fill: #ffec00; "
         id="path79" />
      <path
         d="  M76.0506,22.6387 L76.3485,22.2421 C77.3675,23.2226 78.3866,24.2033 79.4058,25.1840 L78.7699,27.6335 L78.7019,29.4745 L77.2445,30.8379 L76.4384,30.8379 C76.9306,30.1029 78.2518,29.5507 78.2518,28.8229 L78.2518,25.3977 C78.2518,25.1428 76.2164,22.9544 76.0506,22.6387 Z Z M58.9088,20.9649 C58.9088,22.4350 59.8195,23.3613 60.9361,23.7989 C61.2536,23.9234 61.3897,23.8261 61.3540,24.1687 C61.3304,24.3946 61.3212,24.6123 61.1261,24.6236 C60.1939,24.6773 58.3043,23.0044 58.3043,21.1664 L58.3043,19.7558 C58.3043,19.1364 58.8945,18.9500 59.5133,18.9500 L63.3416,18.8790 L63.3416,20.3604 C63.0063,20.1995 60.5457,19.3611 60.4019,19.3611 C59.6996,19.3611 58.9088,20.2626 58.9088,20.9649 Z Z M85.6664,24.7552 C85.0110,24.7623 85.0684,24.4148 84.5888,23.9908 C84.0947,23.5541 83.5074,23.1962 83.0588,22.2894 C82.7066,23.3378 84.4996,23.9134 84.1861,24.7152 C83.4684,24.4165 82.2815,23.5205 82.2815,22.5769 C82.2815,21.1167 82.8861,20.2766 82.8861,18.7485 C82.8861,17.8216 82.3713,17.3633 81.8787,16.9352 C83.2238,16.6924 84.8180,19.2920 84.6235,20.1486 C84.4408,21.9577 84.1754,23.2611 85.6664,24.7552 Z Z M62.9385,13.1068 L64.1474,12.0994 C64.4440,13.2091 67.1531,15.3233 68.5804,15.3233 L69.7364,15.3516 L70.4898,16.3307 L71.0944,16.3307 C72.8294,16.3307 78.3453,15.9137 79.3878,16.2022 C82.7116,17.1220 80.8713,20.8924 80.8713,23.1814 C80.8713,24.2164 81.5941,24.7340 81.5090,25.0505 L80.7819,30.1406 L80.1243,31.0388 L79.4177,30.9943 L80.3815,29.6266 C80.5448,28.3513 80.7080,27.0760 80.8713,25.8006 C80.8713,25.0008 77.3033,22.6404 76.8806,21.0571 C76.0160,21.2878 75.6336,22.1666 74.2590,22.6138 C73.5555,22.8427 71.6512,22.9799 70.5954,22.9799 L67.7743,22.9799 L67.7743,21.9725 L66.9685,21.9725 C66.8616,23.2554 66.2788,24.4250 66.0334,25.6716 C65.8133,26.7909 66.0434,28.9360 66.1051,30.2725 L65.2284,31.4674 L64.4899,31.3895 L65.5879,30.0295 L65.3563,26.4051 L65.2778,24.9834 L65.7596,21.9725 C62.6986,20.3528 65.2583,16.5708 62.9385,13.1068 Z Z M60.1177,10.8903 L60.5207,9.7305 L61.3920,8.6869 C61.7887,8.7062 61.9295,8.4071 62.2234,8.8916 C62.3678,9.6142 63.0349,10.7135 63.3416,11.2933 C62.4336,12.6495 60.9821,12.5366 60.5207,14.5172 C59.7998,14.5011 59.1103,14.4290 59.1103,13.7111 C59.1103,13.0614 59.8624,11.3731 60.1177,10.8903 Z Z M68.5804,14.5172 C65.8942,13.8914 64.3016,11.2721 63.1401,9.0770 C64.7562,9.4535 68.4275,12.6822 68.5804,14.5172 Z Z M59.1103,24.3903 L60.6086,25.2894 C61.1265,25.6000 61.1634,25.6524 61.6700,25.2528 C62.1023,24.9122 62.4247,24.4372 62.4247,23.6888 C61.8860,23.0103 59.8127,22.9154 59.9162,21.3680 L59.9162,20.9649 C59.9162,20.6350 60.0368,20.3604 60.3193,20.3604 C61.3779,20.3604 62.5011,20.7154 63.3916,21.1557 C63.8476,21.5042 64.2543,22.1614 64.6891,22.4186 C64.6338,24.8221 64.7519,27.2259 64.7519,29.6290 C64.7519,30.1300 63.4466,31.3229 63.2393,32.0992 L65.6529,32.1187 L66.6138,30.6401 C66.4061,28.1868 66.5063,26.1799 67.3713,23.7858 L71.6027,23.7858 C72.8600,23.7858 74.1683,23.4284 75.2295,23.1814 C76.3556,23.9354 77.4458,25.1164 77.4458,27.0096 L77.4458,28.7344 C77.4458,28.7968 75.3297,30.7209 75.0279,31.6437 L77.6368,31.6726 C77.9045,31.3575 78.3431,30.8770 78.6505,30.4475 C78.9316,30.0549 79.0338,29.7202 79.4832,29.4658 C79.4682,27.7489 79.7455,26.8049 80.3327,25.8110 C80.2288,26.9146 79.9917,28.0706 79.9539,29.1851 C79.3396,30.0189 78.8409,30.7273 78.2518,31.6571 L78.2518,31.8453 L80.2668,31.8453 C80.8316,31.5684 80.8624,30.5205 81.4880,30.3761 C81.5877,28.5388 82.0161,26.6109 82.3058,25.3034 C82.3058,24.6482 82.1071,24.8425 81.8787,23.9872 C82.8452,24.6345 83.1137,25.2639 84.3129,25.5007 C85.1743,25.6702 86.8151,26.0063 86.9160,24.7932 C83.9507,24.0015 85.9087,20.8171 85.1333,18.9601 C84.1331,16.5626 82.6709,15.9717 80.7386,15.8634 C80.1185,15.3285 78.9451,15.2526 78.1736,15.2766 L76.6528,15.3278 L70.7967,15.5246 C68.2226,11.6809 66.9054,9.5461 62.5325,7.8725 C62.0096,7.2342 60.8126,6.2988 60.1270,6.1389 L60.5704,7.7462 C60.5704,7.8980 59.8812,8.5636 59.5109,9.4839 L59.2879,10.7664 C58.7951,11.8930 58.3043,12.8766 58.3043,14.1144 C58.3043,14.7671 59.1799,15.3233 59.9162,15.3233 L60.7502,15.2992 C61.0406,14.6212 61.1745,14.1512 62.1327,13.5098 C62.8064,14.0034 63.1401,15.3625 63.1401,16.5322 L63.1401,18.1441 L59.3116,18.1441 C58.2988,18.1441 57.4909,19.0550 57.4909,20.0681 C57.4909,22.4560 57.6696,23.4255 59.1103,24.3903 Z"
         style="fill-rule: evenodd; fill: #000200; "
         id="path80" />
      <path
         d="  M30.0230,83.8185 C29.4247,84.0856 29.0511,79.5279 27.7447,76.3625 C26.2523,72.7476 24.3158,69.1163 22.3937,65.7070 C25.1344,66.6896 27.6737,68.3977 29.7696,71.7007 C29.9120,69.6487 29.2663,67.2853 28.8029,64.7403 C32.9952,67.9152 35.3898,73.2302 36.8751,79.6279 C34.5910,81.0248 32.3070,82.4217 30.0230,83.8185 Z"
         style="fill-rule: evenodd; fill: #000200; "
         id="path81" />
      <path
         d="  M29.7800,66.4117 C30.1455,68.1830 30.5162,70.0569 30.3991,71.7444 L30.2661,73.6610 L29.2368,72.0388 C27.8184,69.8033 26.0894,68.1493 23.8466,67.0146 C25.4812,69.9751 27.0406,73.0033 28.3280,76.1217 C28.5954,76.7696 28.8141,77.4405 29.0066,78.1142 C29.3304,79.2470 29.5769,80.3942 29.8323,81.5434 C29.8861,81.7852 30.0374,82.5119 30.1823,82.9814 C32.1736,81.7636 34.1647,80.5459 36.1558,79.3280 C35.0493,74.7280 33.2382,69.7729 29.7800,66.4117 Z"
         style="fill-rule: evenodd; fill: #ffec00; "
         id="path82" />
      <path
         d="  M29.8249,78.3841 C29.4810,80.0243 31.8016,83.1715 30.0230,83.8185 C32.6979,83.4437 35.3729,83.0689 38.0478,82.6940 C35.3067,81.2573 32.5658,79.8207 29.8249,78.3841 Z"
         style="fill-rule: evenodd; fill: #000200; "
         id="path83" />
      <path
         d="  M113.9770,83.8185 C114.5753,84.0856 114.9489,79.5279 116.2554,76.3625 C117.7477,72.7476 119.6842,69.1163 121.6063,65.7070 C118.8657,66.6896 116.3263,68.3977 114.2304,71.7007 C114.0881,69.6487 114.7337,67.2853 115.1971,64.7403 C111.0049,67.9152 108.6103,73.2302 107.1250,79.6279 C109.4090,81.0248 111.6931,82.4217 113.9770,83.8185 Z"
         style="fill-rule: evenodd; fill: #000200; "
         id="path84" />
      <path
         d="  M114.2201,66.4117 C113.8546,68.1830 113.4838,70.0569 113.6009,71.7444 L113.7339,73.6610 L114.7633,72.0388 C116.1817,69.8033 117.9107,68.1493 120.1535,67.0146 C118.5189,69.9751 116.9595,73.0033 115.6721,76.1217 C115.4046,76.7696 115.1859,77.4405 114.9935,78.1142 C114.6696,79.2470 114.4231,80.3942 114.1677,81.5434 C114.1139,81.7852 113.9626,82.5119 113.8177,82.9814 C111.8265,81.7636 109.8353,80.5459 107.8442,79.3280 C108.9508,74.7280 110.7618,69.7729 114.2201,66.4117 Z"
         style="fill-rule: evenodd; fill: #ffec00; "
         id="path85" />
      <path
         d="  M114.1751,78.3841 C114.5190,80.0243 112.1984,83.1715 113.9770,83.8185 C111.3021,83.4437 108.6272,83.0689 105.9523,82.6940 C108.6933,81.2573 111.4342,79.8207 114.1751,78.3841 Z"
         style="fill-rule: evenodd; fill: #000200; "
         id="path86" />
      <path
         d="  M72.0000,105.3569 C53.3709,105.4885 34.5646,93.0727 29.8249,78.3841 C32.3810,76.5619 34.9372,76.6141 37.4931,77.5184 C43.1933,87.5988 54.9240,97.6206 72.0000,97.8813 C89.0760,97.6206 100.8068,87.5988 106.5069,77.5184 C109.0628,76.6141 111.6190,76.5619 114.1751,78.3841 C109.4354,93.0727 90.6291,105.4885 72.0000,105.3569 Z"
         style="fill-rule: evenodd; fill: #000200; "
         id="path87" />
      <path
         d="  M113.4251,78.6393 C111.3557,77.3243 109.2487,77.2672 106.9374,78.0377 C103.7592,83.5788 99.2012,88.4035 93.8660,91.9096 C87.3071,96.2198 79.8458,98.3926 72.0096,98.5122 L72.0000,98.5124 L71.9904,98.5122 C64.1542,98.3926 56.6929,96.2198 50.1340,91.9096 C44.7988,88.4035 40.2408,83.5788 37.0626,78.0377 C34.7513,77.2672 32.6443,77.3243 30.5749,78.6393 C32.6918,84.8005 37.1794,90.1332 42.2148,94.1470 C48.0079,98.7646 55.0500,102.0988 62.2846,103.6835 C65.4704,104.3813 68.7331,104.7489 72.0000,104.7258 C75.2670,104.7489 78.5296,104.3813 81.7154,103.6835 C88.9501,102.0988 95.9922,98.7646 101.7852,94.1470 C106.8207,90.1332 111.3083,84.8005 113.4251,78.6393 Z"
         style="fill-rule: evenodd; fill: #ffec00; "
         id="path88" />
      <path
         d="  M35.9887,85.9631 L38.4302,83.9146 L39.3011,84.9525 C39.5201,85.2135 39.6568,85.4213 39.7122,85.5763 C39.7676,85.7313 39.7695,85.8916 39.7171,86.0565 C39.6641,86.2221 39.5658,86.3646 39.4214,86.4857 C39.2384,86.6393 39.0413,86.7126 38.8318,86.7054 C38.6228,86.6976 38.4117,86.5997 38.2012,86.4111 C38.2284,86.5704 38.2342,86.7158 38.2178,86.8477 C38.2015,86.9794 38.1480,87.1834 38.0567,87.4604 L37.8308,88.1584 L37.3362,87.5689 L37.5686,86.7667 C37.6521,86.4805 37.6991,86.2940 37.7094,86.2058 C37.7198,86.1178 37.7117,86.0401 37.6866,85.9721 C37.6608,85.9045 37.6009,85.8146 37.5055,85.7009 L37.4219,85.6014 L36.4028,86.4566 L35.9887,85.9631 Z Z M37.8120,85.2742 L38.1177,85.6385 C38.3162,85.8750 38.4497,86.0146 38.5193,86.0571 C38.5883,86.0989 38.6616,86.1159 38.7386,86.1084 C38.8152,86.1004 38.8903,86.0663 38.9636,86.0049 C39.0460,85.9357 39.0934,85.8582 39.1073,85.7719 C39.1211,85.6857 39.1009,85.5971 39.0473,85.5055 C39.0190,85.4614 38.9214,85.3390 38.7534,85.1389 L38.4311,84.7547 L37.8120,85.2742 Z Z M40.0587,90.5075 L39.5722,90.0036 L39.8999,89.3003 L39.0149,88.3838 L38.3113,88.6980 L37.8371,88.2069 L40.9921,86.8860 L41.4648,87.3755 L40.0587,90.5075 Z Z M40.1425,88.7792 L40.6882,87.6416 L39.5385,88.1536 L40.1425,88.7792 Z Z M40.3139,90.7389 L42.4465,88.3705 L43.2136,89.0612 C43.5042,89.3229 43.6829,89.5058 43.7498,89.6089 C43.8537,89.7663 43.8984,89.9463 43.8826,90.1478 C43.8671,90.3495 43.7742,90.5446 43.6049,90.7326 C43.4738,90.8782 43.3371,90.9766 43.1953,91.0278 C43.0529,91.0793 42.9162,91.0970 42.7835,91.0803 C42.6517,91.0635 42.5354,91.0266 42.4352,90.9693 C42.3006,90.8891 42.1247,90.7518 41.9080,90.5567 L41.5964,90.2762 L40.7921,91.1694 L40.3139,90.7389 Z Z M42.5636,89.2019 L41.9589,89.8736 L42.2202,90.1089 C42.4089,90.2788 42.5461,90.3803 42.6318,90.4126 C42.7176,90.4449 42.8020,90.4509 42.8861,90.4308 C42.9695,90.4102 43.0428,90.3653 43.1059,90.2952 C43.1834,90.2093 43.2220,90.1154 43.2220,90.0134 C43.2220,89.9124 43.1892,89.8192 43.1245,89.7359 C43.0770,89.6730 42.9667,89.5649 42.7947,89.4100 L42.5636,89.2019 Z Z M42.5222,92.6724 L44.5279,90.1956 L45.0278,90.6005 L43.0221,93.0773 L42.5222,92.6724 Z Z M43.4744,93.4739 L45.3477,90.8956 L45.8689,91.2742 L45.1318,92.2886 L46.1518,93.0297 L46.8888,92.0151 L47.4093,92.3934 L45.5360,94.9717 L45.0155,94.5936 L45.8346,93.4661 L44.8147,92.7252 L43.9955,93.8525 L43.4744,93.4739 Z Z M49.6905,97.5527 L50.4596,94.3677 L51.0462,94.6666 L50.4808,96.8353 L51.9935,95.1493 L52.6753,95.4966 L52.1625,97.7338 L53.6088,95.9723 L54.1860,96.2665 L52.0496,98.7547 L51.4413,98.4448 L51.9577,96.0337 L50.3120,97.8694 L49.6905,97.5527 Z Z M53.0340,99.1942 L54.3302,96.2826 L54.9178,96.5442 L53.6216,99.4558 L53.0340,99.1942 Z Z M54.1674,99.7228 L55.3096,96.7476 L55.8943,96.9719 L56.3495,99.4263 L57.1121,97.4394 L57.6705,97.6538 L56.5283,100.6291 L55.9249,100.3975 L55.4706,97.9969 L54.7257,99.9373 L54.1674,99.7228 Z Z M59.9105,101.7417 L59.2406,101.5369 L59.1862,100.7629 L57.9679,100.3905 L57.5049,101.0062 L56.8520,100.8067 L58.9710,98.1218 L59.6217,98.3208 L59.9105,101.7417 Z Z M59.1459,100.1895 L59.0716,98.9300 L58.3142,99.9354 L59.1459,100.1895 Z Z M60.2554,101.8604 L60.9724,98.7551 L61.5826,98.8959 L62.3749,101.2630 L62.8537,99.1894 L63.4364,99.3239 L62.7194,102.4293 L62.0898,102.2839 L61.3057,99.9698 L60.8381,101.9950 L60.2554,101.8604 Z Z M65.0280,101.6685 L65.1120,101.1378 L66.4818,101.3548 L66.2832,102.6089 C66.1293,102.7167 65.9187,102.7997 65.6501,102.8579 C65.3820,102.9153 65.1184,102.9240 64.8596,102.8830 C64.5306,102.8309 64.2542,102.7165 64.0313,102.5400 C63.8084,102.3627 63.6556,102.1364 63.5732,101.8595 C63.4908,101.5828 63.4735,101.2940 63.5213,100.9918 C63.5732,100.6643 63.6883,100.3835 63.8659,100.1502 C64.0438,99.9176 64.2757,99.7539 64.5624,99.6602 C64.7806,99.5873 65.0402,99.5752 65.3407,99.6228 C65.7314,99.6846 66.0240,99.8151 66.2172,100.0132 C66.4110,100.2121 66.5167,100.4610 66.5338,100.7606 L65.8841,100.7785 C65.8639,100.6170 65.7997,100.4813 65.6915,100.3724 C65.5834,100.2636 65.4380,100.1947 65.2547,100.1657 C64.9768,100.1218 64.7425,100.1748 64.5504,100.3247 C64.3583,100.4753 64.2355,100.7234 64.1806,101.0699 C64.1216,101.4430 64.1599,101.7369 64.2967,101.9501 C64.4328,102.1633 64.6357,102.2907 64.9047,102.3334 C65.0381,102.3545 65.1756,102.3493 65.3180,102.3185 C65.4596,102.2876 65.5848,102.2420 65.6924,102.1832 L65.7557,101.7838 L65.0280,101.6685 Z Z M67.0749,99.9303 L67.7159,99.9863 L67.5654,101.7058 C67.5416,101.9786 67.5341,102.1567 67.5426,102.2387 C67.5586,102.3711 67.6153,102.4810 67.7112,102.5685 C67.8077,102.6566 67.9454,102.7081 68.1244,102.7237 C68.3063,102.7396 68.4470,102.7146 68.5459,102.6483 C68.6447,102.5824 68.7082,102.4956 68.7361,102.3892 C68.7649,102.2823 68.7894,102.1033 68.8115,101.8520 L68.9650,100.0956 L69.6060,100.1518 L69.4601,101.8193 C69.4267,102.2009 69.3862,102.4684 69.3377,102.6229 C69.2891,102.7772 69.2140,102.9041 69.1114,103.0045 C69.0088,103.1042 68.8763,103.1798 68.7154,103.2306 C68.5539,103.2812 68.3470,103.2952 68.0957,103.2732 C67.7926,103.2467 67.5658,103.1918 67.4151,103.1079 C67.2647,103.0240 67.1491,102.9222 67.0679,102.8027 C66.9868,102.6831 66.9372,102.5603 66.9191,102.4351 C66.8929,102.2496 66.8957,101.9794 66.9267,101.6239 L67.0749,99.9303 Z Z M70.0240,103.3891 L70.0240,100.2020 L70.6504,100.2020 L71.9548,102.3302 L71.9548,100.2020 L72.5529,100.2020 L72.5529,103.3891 L71.9066,103.3891 L70.6221,101.3106 L70.6221,103.3891 L70.0240,103.3891 Z Z M76.2124,103.2149 L75.8240,100.0516 L76.4626,99.9732 L76.6350,101.3776 L77.7529,99.8148 L78.6118,99.7093 L77.5721,101.0877 L79.0650,102.8647 L78.2386,102.9662 L77.1872,101.5881 L76.7336,102.1805 L76.8510,103.1365 L76.2124,103.2149 Z Z M79.4161,102.7929 L78.8079,99.6644 L81.1271,99.2136 L81.2301,99.7430 L79.5424,100.0712 L79.6772,100.7647 L81.2477,100.4594 L81.3502,100.9860 L79.7795,101.2913 L79.9451,102.1427 L81.6925,101.8031 L81.7950,102.3305 L79.4161,102.7929 Z Z M82.3375,102.1917 L81.5126,99.1131 L82.8213,98.7625 C83.1503,98.6743 83.3966,98.6384 83.5604,98.6536 C83.7243,98.6689 83.8703,98.7349 83.9978,98.8520 C84.1254,98.9701 84.2130,99.1194 84.2617,99.3014 C84.3235,99.5323 84.3069,99.7419 84.2117,99.9287 C84.1163,100.1148 83.9385,100.2646 83.6785,100.3757 C83.8344,100.4185 83.9685,100.4746 84.0811,100.5453 C84.1937,100.6157 84.3558,100.7504 84.5684,100.9502 L85.1055,101.4499 L84.3623,101.6491 L83.7334,101.0993 C83.5094,100.9028 83.3601,100.7814 83.2846,100.7347 C83.2091,100.6882 83.1354,100.6627 83.0631,100.6566 C82.9911,100.6514 82.8842,100.6677 82.7408,100.7062 L82.6154,100.7398 L82.9596,102.0249 L82.3375,102.1917 Z Z M82.4836,100.2481 L82.9430,100.1249 C83.2412,100.0450 83.4242,99.9829 83.4921,99.9380 C83.5591,99.8931 83.6056,99.8338 83.6312,99.7608 C83.6564,99.6880 83.6573,99.6056 83.6326,99.5131 C83.6047,99.4092 83.5544,99.3335 83.4821,99.2845 C83.4098,99.2356 83.3210,99.2164 83.2153,99.2262 C83.1635,99.2332 83.0111,99.2701 82.7589,99.3377 L82.2744,99.4675 L82.4836,100.2481 Z Z M86.0947,101.1083 L85.2765,98.5903 L84.3774,98.8824 L84.2107,98.3694 L86.6195,97.5867 L86.7862,98.0997 L85.8892,98.3911 L86.7073,100.9093 L86.0947,101.1083 Z Z M90.3463,99.5271 L89.6923,99.7781 L89.1730,99.2016 L87.9836,99.6582 L87.9979,100.4286 L87.3605,100.6732 L87.3774,97.2529 L88.0126,97.0091 L90.3463,99.5271 Z Z M88.7882,98.7747 L87.9542,97.8279 L87.9763,99.0863 L88.7882,98.7747 Z Z M93.4042,97.9825 L91.9079,95.1685 L93.1044,94.5324 C93.4051,94.3725 93.6368,94.2820 93.8000,94.2601 C93.9631,94.2380 94.1202,94.2695 94.2707,94.3551 C94.4217,94.4413 94.5406,94.5671 94.6290,94.7336 C94.7412,94.9445 94.7720,95.1525 94.7214,95.3559 C94.6703,95.5588 94.5307,95.7449 94.3024,95.9115 C94.4638,95.9181 94.6073,95.9426 94.7329,95.9860 C94.8584,96.0293 95.0468,96.1242 95.2987,96.2710 L95.9345,96.6371 L95.2551,96.9983 L94.5186,96.6042 C94.2562,96.4631 94.0835,96.3784 93.9994,96.3499 C93.9154,96.3215 93.8377,96.3132 93.7661,96.3236 C93.6946,96.3347 93.5940,96.3747 93.4630,96.4444 L93.3483,96.5054 L93.9729,97.6801 L93.4042,97.9825 Z Z M93.1093,96.0558 L93.5293,95.8326 C93.8019,95.6877 93.9662,95.5860 94.0223,95.5269 C94.0775,95.4681 94.1093,95.3998 94.1179,95.3228 C94.1261,95.2464 94.1084,95.1658 94.0635,95.0813 C94.0130,94.9864 93.9472,94.9239 93.8656,94.8923 C93.7841,94.8609 93.6932,94.8622 93.5925,94.8956 C93.5436,94.9141 93.4035,94.9842 93.1728,95.1069 L92.7299,95.3424 L93.1093,96.0558 Z Z M98.6135,94.8797 L98.0260,95.2612 L97.3981,94.8054 L96.3297,95.4993 L96.5037,96.2498 L95.9312,96.6216 L95.2366,93.2725 L95.8073,92.9020 L98.6135,94.8797 Z Z M96.9330,94.4678 L95.9204,93.7150 L96.2036,94.9414 L96.9330,94.4678 Z Z M98.9169,94.6447 L96.9989,92.0994 L97.5133,91.7117 L98.2680,92.7132 L99.2748,91.9546 L98.5201,90.9531 L99.0340,90.5659 L100.9520,93.1111 L100.4381,93.4984 L99.5995,92.3854 L98.5926,93.1442 L99.4314,94.2570 L98.9169,94.6447 Z Z M103.6179,90.8280 L103.0892,91.2876 L102.4040,90.9235 L101.4425,91.7593 L101.7194,92.4783 L101.2042,92.9262 L100.0503,89.7065 L100.5637,89.2601 L103.6179,90.8280 Z Z M101.8964,90.6539 L100.7888,90.0495 L101.2400,91.2245 L101.8964,90.6539 Z Z M103.8484,90.5589 L101.5948,88.3052 L102.5529,87.3472 C102.7937,87.1063 102.9890,86.9520 103.1385,86.8833 C103.2881,86.8146 103.4476,86.7988 103.6165,86.8366 C103.7861,86.8749 103.9366,86.9605 104.0698,87.0938 C104.2388,87.2626 104.3291,87.4526 104.3401,87.6620 C104.3506,87.8708 104.2715,88.0895 104.1019,88.3157 C104.2582,88.2748 104.4025,88.2564 104.5354,88.2612 C104.6680,88.2660 104.8759,88.3016 105.1597,88.3682 L105.8748,88.5325 L105.3307,89.0766 L104.5113,88.9149 C104.2190,88.8567 104.0290,88.8262 103.9403,88.8235 C103.8516,88.8210 103.7750,88.8357 103.7094,88.8667 C103.6444,88.8981 103.5599,88.9658 103.4549,89.0708 L103.3632,89.1627 L104.3039,90.1034 L103.8484,90.5589 Z Z M103.0031,88.8026 L103.3394,88.4663 C103.5578,88.2479 103.6852,88.1027 103.7216,88.0298 C103.7572,87.9574 103.7677,87.8828 103.7534,87.8067 C103.7389,87.7312 103.6984,87.6593 103.6307,87.5917 C103.5546,87.5156 103.4734,87.4752 103.3861,87.4689 C103.2991,87.4625 103.2125,87.4904 103.1259,87.5518 C103.0845,87.5837 102.9711,87.6919 102.7864,87.8765 L102.4318,88.2311 L103.0031,88.8026 Z Z M104.4155,85.2709 L104.8366,84.7864 L106.3593,86.1101 C106.5580,86.2829 106.6960,86.4342 106.7727,86.5620 C106.8718,86.7307 106.9105,86.9137 106.8874,87.1109 C106.8650,87.3087 106.7653,87.5081 106.5895,87.7103 C106.3831,87.9478 106.1584,88.0729 105.9135,88.0852 C105.6699,88.0976 105.4184,87.9931 105.1610,87.7702 L105.5060,87.2669 C105.6486,87.3811 105.7636,87.4456 105.8509,87.4607 C105.9829,87.4830 106.0956,87.4402 106.1886,87.3333 C106.2827,87.2252 106.3185,87.1218 106.2953,87.0230 C106.2727,86.9245 106.1639,86.7906 105.9689,86.6213 L104.4155,85.2709 Z Z M109.3640,84.0168 L108.9523,84.5834 L108.2027,84.3828 L107.4538,85.4135 L107.8853,86.0518 L107.4841,86.6041 L105.6355,83.7264 L106.0354,83.1760 L109.3640,84.0168 Z Z M107.6474,84.2344 L106.4323,83.8945 L107.1363,84.9379 L107.6474,84.2344 Z"
         style="fill-rule: evenodd; fill: #000200; "
         id="path89" />
      <path
         d="  M79.6226,15.9772 C77.0141,15.2554 73.3803,16.0245 70.6022,16.0245 C65.9445,10.3059 65.9005,9.7378 62.3463,8.7038 C62.0578,8.2896 61.2420,7.3005 60.9474,7.1254 C60.8222,7.0511 61.2294,8.5501 61.1081,8.5442 C60.6071,9.5563 58.8115,11.2632 58.8115,13.7646 C58.8115,14.4824 59.8148,14.8242 60.5356,14.8403 C60.7387,13.9686 61.2233,13.4531 61.7797,13.0335 C61.8186,13.0188 61.8567,13.0054 61.8938,12.9935 C62.1573,12.9094 62.3692,12.9065 62.5347,12.9328 C62.6297,12.9479 62.7094,12.9727 62.9408,13.1103 C62.9400,13.1091 62.9392,13.1080 62.9385,13.1068 C62.9436,13.1025 62.9487,13.0983 62.9538,13.0940 C65.2435,16.5516 62.1050,20.3200 65.1588,21.9360 C65.1146,23.4937 65.0703,25.0514 65.0261,26.6090 C65.0732,27.6569 65.1203,28.7047 65.1674,29.7526 C64.8019,30.3061 64.3272,30.9908 63.9617,31.5443 C63.9617,31.5443 64.9430,31.4223 65.4937,31.5526 C65.7012,31.0700 66.1382,30.8388 66.3457,30.3562 C66.2841,29.0197 66.1137,26.7843 66.3338,25.6651 C66.5791,24.4186 67.1704,23.1277 67.2773,21.8447 C67.6832,24.2003 69.4416,23.3900 71.4472,23.1799 C72.5032,23.1799 73.8373,23.1122 74.5408,22.8833 C75.9154,22.4362 76.0237,21.4928 76.8884,21.2618 C76.1689,22.0656 80.6236,25.0617 80.6236,25.8616 C80.5560,27.0062 80.2215,28.1697 80.0819,29.3076 C79.7192,29.8658 79.3564,30.4240 78.9937,30.9821 C79.4343,31.0749 79.8748,31.1678 80.3154,31.2606 C80.6119,30.8594 80.9083,30.4582 81.2048,30.0571 C81.3977,28.2466 81.5907,26.4361 81.7836,24.6256 C81.8687,24.3091 81.2942,24.0856 81.2942,23.0507 C81.2942,22.8492 81.2942,22.6477 81.2942,22.4462 C81.2942,20.0229 82.9307,16.8926 79.6226,15.9772 Z Z M79.8052,25.3593 C78.6393,24.2078 77.4734,23.0562 76.3075,21.9047 C76.2882,22.0521 75.5168,22.5790 75.8413,23.1076 C76.1431,23.6368 77.8292,25.4814 77.8292,25.5730 C77.8762,26.6441 77.9231,27.7153 77.9702,28.7864 C77.9702,29.5143 76.4375,30.3253 75.9453,31.0604 C76.4645,31.0961 76.9837,31.1318 77.5029,31.1675 C77.8870,30.7245 78.2710,30.2814 78.6550,29.8384 C78.8538,29.6070 79.0526,29.3758 79.2514,29.1445 C79.0766,27.9586 79.3849,26.6365 79.8052,25.3593 Z Z M59.3293,20.9284 C59.3293,20.2261 59.7281,19.7671 60.4305,19.7671 C60.5742,19.7671 63.2767,20.4934 63.6119,20.6542 C63.5619,19.9208 63.5119,19.1874 63.4619,18.4541 C62.6849,18.5919 61.9078,18.7298 61.1307,18.8677 C60.6416,18.7729 60.1525,18.6781 59.6634,18.5833 C59.0447,18.5833 58.2443,18.6195 58.2443,19.2389 C58.1341,19.9093 58.0240,20.5797 57.9138,21.2501 C57.9002,23.2344 60.3504,25.3534 61.2329,25.0259 C61.3959,24.9654 61.4614,24.1492 61.5281,23.9508 C60.2157,23.6004 59.3293,22.5938 59.3293,20.9284 Z Z M86.3631,25.0885 C85.6214,24.4686 84.6803,24.1393 84.6893,22.4245 C85.0200,19.5108 84.7743,17.0739 81.3152,16.6397 C81.8078,17.0678 82.3225,17.9500 82.3225,18.8769 C82.3225,20.4050 81.9292,21.3627 81.9292,22.8229 C81.9292,23.8498 84.0155,25.4289 86.3631,25.0885 Z"
         style="fill-rule: evenodd; fill: #ffffff; "
         id="path90" />
    </g>
  </g>
</svg>
